<?xml version="1.0" encoding="UTF-8" standalone="no"?>
<svg
   width="912.66"
   height="556.893"
   viewBox="0 0 241.475 147.345"
   version="1.1"
   id="svg45"
   sodipodi:docname="tiri.svg"
   inkscape:version="1.4 (e7c3feb100, 2024-10-09)"
   xml:space="preserve"
   xmlns:inkscape="http://www.inkscape.org/namespaces/inkscape"
   xmlns:sodipodi="http://sodipodi.sourceforge.net/DTD/sodipodi-0.dtd"
   xmlns="http://www.w3.org/2000/svg"
   xmlns:svg="http://www.w3.org/2000/svg"><sodipodi:namedview
     id="namedview45"
     pagecolor="#ffffff"
     bordercolor="#000000"
     borderopacity="0.25"
     inkscape:showpageshadow="2"
     inkscape:pageopacity="0.0"
     inkscape:pagecheckerboard="0"
     inkscape:deskcolor="#d1d1d1"
     inkscape:zoom="0.61667873"
     inkscape:cx="535.93546"
     inkscape:cy="270.80551"
     inkscape:window-width="1280"
     inkscape:window-height="737"
     inkscape:window-x="0"
     inkscape:window-y="0"
     inkscape:window-maximized="1"
     inkscape:current-layer="svg45" /><defs
     id="defs25"><rect
       x="24.323848"
       y="-11.351129"
       width="504.31446"
       height="629.17688"
       id="rect50" /><rect
       x="12.972719"
       y="168.64535"
       width="35.674978"
       height="17.837489"
       id="rect47" /><rect
       x="32.431798"
       y="171.88853"
       width="228.64418"
       height="337.2907"
       id="rect46" /><clipPath
       id="z"
       clipPathUnits="userSpaceOnUse"><path
         d="M452.787 224.367q-8.984 0-12.803-4.942-3.594-5.166-4.267-12.802-.674-7.862-.674-15.723 0-11.904-3.37-19.092-3.368-7.412-11.904-7.412-7.636 0-11.23 7.412-3.594 7.188-3.594 19.092 0 7.861-.674 15.498-.449 7.637-4.042 12.803-3.594 4.941-13.028 4.941-6.963 0-11.68-5.166-4.492-5.166-6.962-13.476t-3.594-17.97q-.898-9.657-.898-18.642t.898-18.417q.899-9.434 3.145-17.52 2.47-8.086 6.962-13.027 4.493-4.941 11.68-4.941 12.803 0 15.947 11.68 2.696-2.92 8.535-5.391 6.065-2.696 13.701-2.696 17.295 0 28.301 8.76t15.947 24.258q5.166 15.273 4.942 35.488 0 10.332-2.022 18.867-1.797 8.31-6.514 13.476-4.492 4.942-12.802 4.942"
         style="font-size:224.608px;line-height:393.415px;letter-spacing:0;fill-opacity:1;stroke:none"
         id="path1" /></clipPath><clipPath
       id="x"
       clipPathUnits="userSpaceOnUse"><path
         d="M452.787 224.367q-8.984 0-12.803-4.942-3.594-5.166-4.267-12.802-.674-7.862-.674-15.723 0-11.904-3.37-19.092-3.368-7.412-11.904-7.412-7.636 0-11.23 7.412-3.594 7.188-3.594 19.092 0 7.861-.674 15.498-.449 7.637-4.042 12.803-3.594 4.941-13.028 4.941-6.963 0-11.68-5.166-4.492-5.166-6.962-13.476t-3.594-17.97q-.898-9.657-.898-18.642t.898-18.417q.899-9.434 3.145-17.52 2.47-8.086 6.962-13.027 4.493-4.941 11.68-4.941 12.803 0 15.947 11.68 2.696-2.92 8.535-5.391 6.065-2.696 13.701-2.696 17.295 0 28.301 8.76t15.947 24.258q5.166 15.273 4.942 35.488 0 10.332-2.022 18.867-1.797 8.31-6.514 13.476-4.492 4.942-12.802 4.942"
         style="font-size:224.608px;line-height:393.415px;letter-spacing:0;fill-opacity:1;stroke:none"
         id="path2" /></clipPath><clipPath
       id="v"
       clipPathUnits="userSpaceOnUse"><path
         d="M452.787 224.367q-8.984 0-12.803-4.942-3.594-5.166-4.267-12.802-.674-7.862-.674-15.723 0-11.904-3.37-19.092-3.368-7.412-11.904-7.412-7.636 0-11.23 7.412-3.594 7.188-3.594 19.092 0 7.861-.674 15.498-.449 7.637-4.042 12.803-3.594 4.941-13.028 4.941-6.963 0-11.68-5.166-4.492-5.166-6.962-13.476t-3.594-17.97q-.898-9.657-.898-18.642t.898-18.417q.899-9.434 3.145-17.52 2.47-8.086 6.962-13.027 4.493-4.941 11.68-4.941 12.803 0 15.947 11.68 2.696-2.92 8.535-5.391 6.065-2.696 13.701-2.696 17.295 0 28.301 8.76t15.947 24.258q5.166 15.273 4.942 35.488 0 10.332-2.022 18.867-1.797 8.31-6.514 13.476-4.492 4.942-12.802 4.942"
         style="font-size:224.608px;line-height:393.415px;letter-spacing:0;fill-opacity:1;stroke:none"
         id="path3" /></clipPath><clipPath
       id="t"
       clipPathUnits="userSpaceOnUse"><path
         d="M452.787 224.367q-8.984 0-12.803-4.942-3.594-5.166-4.267-12.802-.674-7.862-.674-15.723 0-11.904-3.37-19.092-3.368-7.412-11.904-7.412-7.636 0-11.23 7.412-3.594 7.188-3.594 19.092 0 7.861-.674 15.498-.449 7.637-4.042 12.803-3.594 4.941-13.028 4.941-6.963 0-11.68-5.166-4.492-5.166-6.962-13.476t-3.594-17.97q-.898-9.657-.898-18.642t.898-18.417q.899-9.434 3.145-17.52 2.47-8.086 6.962-13.027 4.493-4.941 11.68-4.941 12.803 0 15.947 11.68 2.696-2.92 8.535-5.391 6.065-2.696 13.701-2.696 17.295 0 28.301 8.76t15.947 24.258q5.166 15.273 4.942 35.488 0 10.332-2.022 18.867-1.797 8.31-6.514 13.476-4.492 4.942-12.802 4.942"
         style="font-size:224.608px;line-height:393.415px;letter-spacing:0;fill-opacity:1;stroke:none"
         id="path4" /></clipPath><clipPath
       id="r"
       clipPathUnits="userSpaceOnUse"><path
         d="M452.787 224.367q-8.984 0-12.803-4.942-3.594-5.166-4.267-12.802-.674-7.862-.674-15.723 0-11.904-3.37-19.092-3.368-7.412-11.904-7.412-7.636 0-11.23 7.412-3.594 7.188-3.594 19.092 0 7.861-.674 15.498-.449 7.637-4.042 12.803-3.594 4.941-13.028 4.941-6.963 0-11.68-5.166-4.492-5.166-6.962-13.476t-3.594-17.97q-.898-9.657-.898-18.642t.898-18.417q.899-9.434 3.145-17.52 2.47-8.086 6.962-13.027 4.493-4.941 11.68-4.941 12.803 0 15.947 11.68 2.696-2.92 8.535-5.391 6.065-2.696 13.701-2.696 17.295 0 28.301 8.76t15.947 24.258q5.166 15.273 4.942 35.488 0 10.332-2.022 18.867-1.797 8.31-6.514 13.476-4.492 4.942-12.802 4.942"
         style="font-size:224.608px;line-height:393.415px;letter-spacing:0;fill-opacity:1;stroke:none"
         id="path5" /></clipPath><clipPath
       id="p"
       clipPathUnits="userSpaceOnUse"><path
         d="M511.634 224.367q-8.984 0-13.476-5.166-4.268-5.166-5.84-15.723-1.348-10.781-1.572-27.627 0-16.845 1.347-27.626 1.573-10.782 6.065-15.723 4.492-5.166 13.476-5.166t13.252 5.166q4.492 4.941 6.065 15.723 1.572 10.78 1.572 27.626.224 16.846-1.348 27.627-1.572 10.557-6.064 15.723t-13.477 5.166"
         style="font-size:224.608px;line-height:393.415px;letter-spacing:0;fill-opacity:1;stroke:none"
         id="path6" /></clipPath><clipPath
       id="n"
       clipPathUnits="userSpaceOnUse"><path
         d="M681.33 224.302q-8.985 0-13.477-5.166-4.268-5.166-5.84-15.722-1.348-10.782-1.572-27.627 0-16.846 1.347-27.627 1.573-10.781 6.065-15.722 4.492-5.166 13.476-5.166t13.252 5.166q4.492 4.94 6.065 15.722 1.572 10.781 1.572 27.627.224 16.845-1.348 27.627-1.572 10.556-6.064 15.722t-13.477 5.166"
         style="font-size:224.608px;line-height:393.415px;letter-spacing:0;fill-opacity:1;stroke:none"
         id="path7" /></clipPath><clipPath
       id="l"
       clipPathUnits="userSpaceOnUse"><path
         d="M573.177 224.367q-7.637 0-12.578-4.942-4.717-5.166-7.188-13.7-2.47-8.536-3.369-19.542-.898-11.006-.898-22.685 0-7.861.225-15.947.449-8.31 2.246-15.274 2.021-6.962 6.513-11.23 4.717-4.492 13.252-4.492 6.065 0 11.006 2.92 4.941 2.695 6.289 8.31 5.166-4.717 13.027-6.738 8.086-2.246 16.621-2.246 7.188 0 14.6 3.594 7.412 3.369 12.578 9.433 5.166 6.065 5.166 13.701 0 6.514-4.942 12.354-4.716 5.84-13.476 5.84-3.818 0-6.29-.899-2.47-1.123-4.716-2.021-2.246-.899-5.39-.899-8.311 0-15.274 6.738-6.738 6.514-6.738 17.744 0 5.84-.45 12.803-.224 6.738-2.02 13.027-1.573 6.29-5.84 10.332-4.268 3.819-12.354 3.819"
         style="font-size:224.608px;line-height:393.415px;letter-spacing:0;fill-opacity:1;stroke:none"
         id="path8" /></clipPath><clipPath
       id="j"
       clipPathUnits="userSpaceOnUse"><path
         d="M573.177 224.367q-7.637 0-12.578-4.942-4.717-5.166-7.188-13.7-2.47-8.536-3.369-19.542-.898-11.006-.898-22.685 0-7.861.225-15.947.449-8.31 2.246-15.274 2.021-6.962 6.513-11.23 4.717-4.492 13.252-4.492 6.065 0 11.006 2.92 4.941 2.695 6.289 8.31 5.166-4.717 13.027-6.738 8.086-2.246 16.621-2.246 7.188 0 14.6 3.594 7.412 3.369 12.578 9.433 5.166 6.065 5.166 13.701 0 6.514-4.942 12.354-4.716 5.84-13.476 5.84-3.818 0-6.29-.899-2.47-1.123-4.716-2.021-2.246-.899-5.39-.899-8.311 0-15.274 6.738-6.738 6.514-6.738 17.744 0 5.84-.45 12.803-.224 6.738-2.02 13.027-1.573 6.29-5.84 10.332-4.268 3.819-12.354 3.819"
         style="font-size:224.608px;line-height:393.415px;letter-spacing:0;fill-opacity:1;stroke:none"
         id="path9" /></clipPath><clipPath
       id="h"
       clipPathUnits="userSpaceOnUse"><path
         d="M573.177 224.367q-7.637 0-12.578-4.942-4.717-5.166-7.188-13.7-2.47-8.536-3.369-19.542-.898-11.006-.898-22.685 0-7.861.225-15.947.449-8.31 2.246-15.274 2.021-6.962 6.513-11.23 4.717-4.492 13.252-4.492 6.065 0 11.006 2.92 4.941 2.695 6.289 8.31 5.166-4.717 13.027-6.738 8.086-2.246 16.621-2.246 7.188 0 14.6 3.594 7.412 3.369 12.578 9.433 5.166 6.065 5.166 13.701 0 6.514-4.942 12.354-4.716 5.84-13.476 5.84-3.818 0-6.29-.899-2.47-1.123-4.716-2.021-2.246-.899-5.39-.899-8.311 0-15.274 6.738-6.738 6.514-6.738 17.744 0 5.84-.45 12.803-.224 6.738-2.02 13.027-1.573 6.29-5.84 10.332-4.268 3.819-12.354 3.819"
         style="font-size:224.608px;line-height:393.415px;letter-spacing:0;fill-opacity:1;stroke:none"
         id="path10" /></clipPath><clipPath
       id="f"
       clipPathUnits="userSpaceOnUse"><path
         d="M573.177 224.367q-7.637 0-12.578-4.942-4.717-5.166-7.188-13.7-2.47-8.536-3.369-19.542-.898-11.006-.898-22.685 0-7.861.225-15.947.449-8.31 2.246-15.274 2.021-6.962 6.513-11.23 4.717-4.492 13.252-4.492 6.065 0 11.006 2.92 4.941 2.695 6.289 8.31 5.166-4.717 13.027-6.738 8.086-2.246 16.621-2.246 7.188 0 14.6 3.594 7.412 3.369 12.578 9.433 5.166 6.065 5.166 13.701 0 6.514-4.942 12.354-4.716 5.84-13.476 5.84-3.818 0-6.29-.899-2.47-1.123-4.716-2.021-2.246-.899-5.39-.899-8.311 0-15.274 6.738-6.738 6.514-6.738 17.744 0 5.84-.45 12.803-.224 6.738-2.02 13.027-1.573 6.29-5.84 10.332-4.268 3.819-12.354 3.819"
         style="font-size:224.608px;line-height:393.415px;letter-spacing:0;fill-opacity:1;stroke:none"
         id="path11" /></clipPath><clipPath
       id="d"
       clipPathUnits="userSpaceOnUse"><path
         d="M681.438 224.367q-8.984 0-13.476-5.166-4.268-5.166-5.84-15.723-1.348-10.781-1.572-27.627 0-16.845 1.347-27.626 1.572-10.782 6.065-15.723 4.492-5.166 13.476-5.166t13.252 5.166q4.492 4.941 6.064 15.723 1.573 10.78 1.573 27.626.224 16.846-1.348 27.627-1.572 10.557-6.064 15.723-4.493 5.166-13.477 5.166"
         style="font-size:224.608px;line-height:393.415px;letter-spacing:0;fill-opacity:1;stroke:none"
         id="path12" /></clipPath><clipPath
       id="a"
       clipPathUnits="userSpaceOnUse"><path
         d="M681.438 224.367q-8.984 0-13.476-5.166-4.268-5.166-5.84-15.723-1.348-10.781-1.572-27.627 0-16.845 1.347-27.626 1.572-10.782 6.065-15.723 4.492-5.166 13.476-5.166t13.252 5.166q4.492 4.941 6.064 15.723 1.573 10.78 1.573 27.626.224 16.846-1.348 27.627-1.572 10.557-6.064 15.723-4.493 5.166-13.477 5.166"
         style="font-size:224.608px;line-height:393.415px;letter-spacing:0;fill-opacity:1;stroke:none"
         id="path13" /></clipPath><filter
       id="o"
       width="2.1125443"
       height="3.1275505"
       x="-0.55627217"
       y="-1.0637753"
       style="color-interpolation-filters:sRGB"><feGaussianBlur
         stdDeviation="8.043 5.792"
         id="feGaussianBlur13" /></filter><filter
       id="g"
       width="2.0956777"
       height="2.0428616"
       x="-0.54783883"
       y="-0.52143081"
       style="color-interpolation-filters:sRGB"><feGaussianBlur
         stdDeviation="8.418 5.292"
         id="feGaussianBlur14" /></filter><filter
       id="i"
       width="1.6866876"
       height="2.0640624"
       x="-0.34334382"
       y="-0.53203121"
       style="color-interpolation-filters:sRGB"><feGaussianBlur
         stdDeviation="6.5 6.5"
         id="feGaussianBlur15" /></filter><filter
       id="b"
       width="2.2919437"
       height="3.0362996"
       x="-0.64597184"
       y="-1.0181498"
       style="color-interpolation-filters:sRGB"><feGaussianBlur
         stdDeviation="9.418 5.792"
         id="feGaussianBlur16" /></filter><filter
       id="w"
       width="2.3684367"
       height="2.3880584"
       x="-0.68421836"
       y="-0.69402922"
       style="color-interpolation-filters:sRGB"><feGaussianBlur
         stdDeviation="8.821 2.694"
         id="feGaussianBlur17" /></filter><filter
       id="A"
       width="2.4288321"
       height="2.0995146"
       x="-0.71441605"
       y="-0.54975728"
       style="color-interpolation-filters:sRGB"><feGaussianBlur
         stdDeviation="9.071 2.318"
         id="feGaussianBlur18" /></filter><filter
       id="q"
       width="2.4157497"
       height="2.0829778"
       x="-0.70787486"
       y="-0.54148889"
       style="color-interpolation-filters:sRGB"><feGaussianBlur
         stdDeviation="9.446 2.193"
         id="feGaussianBlur19" /></filter><filter
       id="k"
       width="2.1335011"
       height="1.9801247"
       x="-0.56675055"
       y="-0.49006235"
       style="color-interpolation-filters:sRGB"><feGaussianBlur
         stdDeviation="8.071 2.443"
         id="feGaussianBlur20" /></filter><filter
       id="m"
       width="1.7068698"
       height="1.7434491"
       x="-0.35343491"
       y="-0.37172454"
       style="color-interpolation-filters:sRGB"><feGaussianBlur
         stdDeviation="4.069"
         id="feGaussianBlur21" /></filter><filter
       id="e"
       width="2.3182416"
       height="2.5038781"
       x="-0.65912078"
       y="-0.75193907"
       style="color-interpolation-filters:sRGB"><feGaussianBlur
         stdDeviation="8.696 2.819"
         id="feGaussianBlur22" /></filter><filter
       id="y"
       width="1.7296208"
       height="2.2882247"
       x="-0.36481042"
       y="-0.64411237"
       style="color-interpolation-filters:sRGB"><feGaussianBlur
         stdDeviation="4.069"
         id="feGaussianBlur23" /></filter><filter
       id="u"
       width="1.7755075"
       height="1.9577091"
       x="-0.38775374"
       y="-0.47885456"
       style="color-interpolation-filters:sRGB"><feGaussianBlur
         stdDeviation="7.293 7.167"
         id="feGaussianBlur24" /></filter><filter
       id="s"
       width="2.2410137"
       height="2.7622156"
       x="-0.62050687"
       y="-0.88110782"
       style="color-interpolation-filters:sRGB"><feGaussianBlur
         stdDeviation="4.917 4.292"
         id="feGaussianBlur25" /></filter><rect
       x="24.323848"
       y="-11.351129"
       width="504.31446"
       height="629.17688"
       id="rect52" /><rect
       x="24.323848"
       y="-11.351129"
       width="504.31446"
       height="629.17688"
       id="rect53" /><clipPath
       id="f-2"
       clipPathUnits="userSpaceOnUse"><path
         d="m 573.177,224.367 q -7.637,0 -12.578,-4.942 -4.717,-5.166 -7.188,-13.7 -2.47,-8.536 -3.369,-19.542 -0.898,-11.006 -0.898,-22.685 0,-7.861 0.225,-15.947 0.449,-8.31 2.246,-15.274 2.021,-6.962 6.513,-11.23 4.717,-4.492 13.252,-4.492 6.065,0 11.006,2.92 4.941,2.695 6.289,8.31 5.166,-4.717 13.027,-6.738 8.086,-2.246 16.621,-2.246 7.188,0 14.6,3.594 7.412,3.369 12.578,9.433 5.166,6.065 5.166,13.701 0,6.514 -4.942,12.354 -4.716,5.84 -13.476,5.84 -3.818,0 -6.29,-0.899 -2.47,-1.123 -4.716,-2.021 -2.246,-0.899 -5.39,-0.899 -8.311,0 -15.274,6.738 -6.738,6.514 -6.738,17.744 0,5.84 -0.45,12.803 -0.224,6.738 -2.02,13.027 -1.573,6.29 -5.84,10.332 -4.268,3.819 -12.354,3.819"
         style="font-size:224.608px;line-height:393.415px;letter-spacing:0;fill-opacity:1;stroke:none"
         id="path11-9" /></clipPath><filter
       id="g-1"
       width="2.0956777"
       height="2.0428616"
       x="-0.54783883"
       y="-0.52143081"
       style="color-interpolation-filters:sRGB"><feGaussianBlur
         stdDeviation="8.418 5.292"
         id="feGaussianBlur14-2" /></filter><clipPath
       id="f-0"
       clipPathUnits="userSpaceOnUse"><path
         d="m 573.177,224.367 q -7.637,0 -12.578,-4.942 -4.717,-5.166 -7.188,-13.7 -2.47,-8.536 -3.369,-19.542 -0.898,-11.006 -0.898,-22.685 0,-7.861 0.225,-15.947 0.449,-8.31 2.246,-15.274 2.021,-6.962 6.513,-11.23 4.717,-4.492 13.252,-4.492 6.065,0 11.006,2.92 4.941,2.695 6.289,8.31 5.166,-4.717 13.027,-6.738 8.086,-2.246 16.621,-2.246 7.188,0 14.6,3.594 7.412,3.369 12.578,9.433 5.166,6.065 5.166,13.701 0,6.514 -4.942,12.354 -4.716,5.84 -13.476,5.84 -3.818,0 -6.29,-0.899 -2.47,-1.123 -4.716,-2.021 -2.246,-0.899 -5.39,-0.899 -8.311,0 -15.274,6.738 -6.738,6.514 -6.738,17.744 0,5.84 -0.45,12.803 -0.224,6.738 -2.02,13.027 -1.573,6.29 -5.84,10.332 -4.268,3.819 -12.354,3.819"
         style="font-size:224.608px;line-height:393.415px;letter-spacing:0;fill-opacity:1;stroke:none"
         id="path11-93" /></clipPath><filter
       id="g-6"
       width="2.0956777"
       height="2.0428616"
       x="-0.54783883"
       y="-0.52143081"
       style="color-interpolation-filters:sRGB"><feGaussianBlur
         stdDeviation="8.418 5.292"
         id="feGaussianBlur14-0" /></filter><filter
       style="color-interpolation-filters:sRGB"
       id="filter21"
       x="-0.55626912"
       y="-1.0637679"
       width="2.1125382"
       height="3.1275357"><feGaussianBlur
         stdDeviation="8.043 5.792"
         id="feGaussianBlur21-9" /></filter><filter
       style="color-interpolation-filters:sRGB"
       id="filter22"
       x="-0.54784507"
       y="-0.52143788"
       width="2.0956901"
       height="2.0428758"><feGaussianBlur
         stdDeviation="8.418 5.292"
         id="feGaussianBlur22-2" /></filter><filter
       style="color-interpolation-filters:sRGB"
       id="filter23"
       x="-0.24653029"
       y="-0.38201636"
       width="1.4930606"
       height="1.7640327"><feGaussianBlur
         stdDeviation="4.667 4.667"
         id="feGaussianBlur23-0" /></filter><filter
       style="color-interpolation-filters:sRGB"
       id="filter24"
       x="-0.64596999"
       y="-1.0181498"
       width="2.29194"
       height="3.0362996"><feGaussianBlur
         stdDeviation="9.418 5.792"
         id="feGaussianBlur24-2" /></filter><filter
       style="color-interpolation-filters:sRGB"
       id="filter27"
       x="-0.30853596"
       y="-1.6721658"
       width="1.6170719"
       height="4.3443317"><feGaussianBlur
         stdDeviation="8.2543341"
         id="feGaussianBlur26" /></filter><filter
       style="color-interpolation-filters:sRGB"
       id="filter52"
       x="-0.68423517"
       y="-0.69406234"
       width="2.3684703"
       height="2.3881247"><feGaussianBlur
         stdDeviation="8.821 2.694"
         id="feGaussianBlur52" /></filter><filter
       style="color-interpolation-filters:sRGB"
       id="filter53"
       x="-0.71441769"
       y="-0.54979964"
       width="2.4288354"
       height="2.0995993"><feGaussianBlur
         stdDeviation="9.071 2.318"
         id="feGaussianBlur54" /></filter><filter
       style="color-interpolation-filters:sRGB"
       id="filter55"
       x="-0.70788901"
       y="-0.54149084"
       width="2.415778"
       height="2.0829817"><feGaussianBlur
         stdDeviation="9.446 2.193"
         id="feGaussianBlur55" /></filter><filter
       style="color-interpolation-filters:sRGB"
       id="filter56"
       x="-0.56676746"
       y="-0.49000794"
       width="2.1335349"
       height="1.9800159"><feGaussianBlur
         stdDeviation="8.071 2.443"
         id="feGaussianBlur56" /></filter><filter
       style="color-interpolation-filters:sRGB"
       id="filter57"
       x="-0.35343365"
       y="-0.37173586"
       width="1.7068673"
       height="1.7434717"><feGaussianBlur
         stdDeviation="4.0690733"
         id="feGaussianBlur57" /></filter><filter
       style="color-interpolation-filters:sRGB"
       id="filter58"
       x="-0.6591189"
       y="-0.75196975"
       width="2.3182378"
       height="2.5039395"><feGaussianBlur
         stdDeviation="8.696 2.819"
         id="feGaussianBlur58" /></filter><filter
       style="color-interpolation-filters:sRGB"
       id="filter59"
       x="-0.36482318"
       y="-0.64413503"
       width="1.7296464"
       height="2.2882701"><feGaussianBlur
         stdDeviation="4.0690733"
         id="feGaussianBlur59" /></filter><filter
       style="color-interpolation-filters:sRGB"
       id="filter60"
       x="-0.2985791"
       y="-1.7272615"
       width="1.5971582"
       height="4.4545231"><feGaussianBlur
         stdDeviation="8.1470038"
         id="feGaussianBlur60" /></filter><filter
       style="color-interpolation-filters:sRGB"
       id="filter70"
       x="-0.44225678"
       y="-0.3197549"
       width="1.8841637"
       height="1.6395177"><feGaussianBlur
         stdDeviation="18.461288"
         id="feGaussianBlur70" /></filter><filter
       style="color-interpolation-filters:sRGB"
       id="filter72"
       x="-0.43271318"
       y="-0.31310251"
       width="1.8654264"
       height="1.626205"><feGaussianBlur
         stdDeviation="18.509006"
         id="feGaussianBlur72" /></filter><filter
       style="color-interpolation-filters:sRGB"
       id="filter1"
       x="-0.38774738"
       y="-0.47884843"
       width="1.7754948"
       height="1.9576969"><feGaussianBlur
         stdDeviation="7.293 7.167"
         id="feGaussianBlur1" /></filter><filter
       style="color-interpolation-filters:sRGB"
       id="filter2"
       x="-0.62054635"
       y="-0.88111625"
       width="2.2410927"
       height="2.7622325"><feGaussianBlur
         stdDeviation="4.917 4.292"
         id="feGaussianBlur2" /></filter><clipPath
       clipPathUnits="userSpaceOnUse"
       id="clipPath1"><path
         style="font-size:224.608px;line-height:393.415px;font-family:'Cherry Bomb One';-inkscape-font-specification:'Cherry Bomb One';letter-spacing:0px;fill:#bf4040;fill-opacity:1;stroke:none;stroke-width:2.11667;stroke-linecap:square;paint-order:stroke fill markers"
         d="m 452.78682,224.36663 q -8.98432,0 -12.80266,-4.94138 -3.59373,-5.16598 -4.26757,-12.80265 -0.67381,-7.86128 -0.67381,-15.72256 0,-11.90423 -3.36913,-19.09168 -3.36912,-7.41207 -11.90421,-7.41207 -7.63667,0 -11.2304,7.41207 -3.59373,7.18745 -3.59373,19.09168 0,7.86128 -0.67384,15.49795 -0.44921,7.63667 -4.04294,12.80266 -3.59373,4.94137 -13.02726,4.94137 -6.96286,0 -11.67961,-5.16598 -4.49217,-5.16599 -6.96285,-13.47648 -2.47068,-8.3105 -3.59373,-17.96864 -0.89842,-9.65815 -0.89842,-18.64247 0,-8.98432 0.89842,-18.41785 0.89844,-9.43354 3.14452,-17.51943 2.47068,-8.08588 6.96285,-13.02726 4.49215,-4.94138 11.67961,-4.94138 12.80266,0 15.94715,11.67962 2.69531,-2.9199 8.53512,-5.39059 6.0644,-2.6953 13.70107,-2.6953 17.29484,0 28.30063,8.75971 11.00577,8.75972 15.94715,24.25767 5.16599,15.27334 4.94139,35.48806 0,10.33197 -2.02147,18.86707 -1.79687,8.3105 -6.51365,13.47648 -4.49215,4.94138 -12.80263,4.94138 z"
         id="path5-3" /></clipPath><clipPath
       clipPathUnits="userSpaceOnUse"
       id="clipPath5"><path
         style="font-size:224.608px;line-height:393.415px;font-family:'Cherry Bomb One';-inkscape-font-specification:'Cherry Bomb One';letter-spacing:0px;fill:#bf4040;fill-opacity:1;stroke:none;stroke-width:2.11667;stroke-linecap:square;paint-order:stroke fill markers"
         d="m 452.78682,224.36663 q -8.98432,0 -12.80266,-4.94138 -3.59373,-5.16598 -4.26757,-12.80265 -0.67381,-7.86128 -0.67381,-15.72256 0,-11.90423 -3.36913,-19.09168 -3.36912,-7.41207 -11.90421,-7.41207 -7.63667,0 -11.2304,7.41207 -3.59373,7.18745 -3.59373,19.09168 0,7.86128 -0.67384,15.49795 -0.44921,7.63667 -4.04294,12.80266 -3.59373,4.94137 -13.02726,4.94137 -6.96286,0 -11.67961,-5.16598 -4.49217,-5.16599 -6.96285,-13.47648 -2.47068,-8.3105 -3.59373,-17.96864 -0.89842,-9.65815 -0.89842,-18.64247 0,-8.98432 0.89842,-18.41785 0.89844,-9.43354 3.14452,-17.51943 2.47068,-8.08588 6.96285,-13.02726 4.49215,-4.94138 11.67961,-4.94138 12.80266,0 15.94715,11.67962 2.69531,-2.9199 8.53512,-5.39059 6.0644,-2.6953 13.70107,-2.6953 17.29484,0 28.30063,8.75971 11.00577,8.75972 15.94715,24.25767 5.16599,15.27334 4.94139,35.48806 0,10.33197 -2.02147,18.86707 -1.79687,8.3105 -6.51365,13.47648 -4.49215,4.94138 -12.80263,4.94138 z"
         id="path8-7" /></clipPath><clipPath
       clipPathUnits="userSpaceOnUse"
       id="clipPath8"><path
         style="font-size:224.608px;line-height:393.415px;font-family:'Cherry Bomb One';-inkscape-font-specification:'Cherry Bomb One';letter-spacing:0px;fill:#bf4040;fill-opacity:1;stroke:none;stroke-width:2.11667;stroke-linecap:square;paint-order:stroke fill markers"
         d="m 452.78682,224.36663 q -8.98432,0 -12.80266,-4.94138 -3.59373,-5.16598 -4.26757,-12.80265 -0.67381,-7.86128 -0.67381,-15.72256 0,-11.90423 -3.36913,-19.09168 -3.36912,-7.41207 -11.90421,-7.41207 -7.63667,0 -11.2304,7.41207 -3.59373,7.18745 -3.59373,19.09168 0,7.86128 -0.67384,15.49795 -0.44921,7.63667 -4.04294,12.80266 -3.59373,4.94137 -13.02726,4.94137 -6.96286,0 -11.67961,-5.16598 -4.49217,-5.16599 -6.96285,-13.47648 -2.47068,-8.3105 -3.59373,-17.96864 -0.89842,-9.65815 -0.89842,-18.64247 0,-8.98432 0.89842,-18.41785 0.89844,-9.43354 3.14452,-17.51943 2.47068,-8.08588 6.96285,-13.02726 4.49215,-4.94138 11.67961,-4.94138 12.80266,0 15.94715,11.67962 2.69531,-2.9199 8.53512,-5.39059 6.0644,-2.6953 13.70107,-2.6953 17.29484,0 28.30063,8.75971 11.00577,8.75972 15.94715,24.25767 5.16599,15.27334 4.94139,35.48806 0,10.33197 -2.02147,18.86707 -1.79687,8.3105 -6.51365,13.47648 -4.49215,4.94138 -12.80263,4.94138 z"
         id="path11-5" /></clipPath><clipPath
       clipPathUnits="userSpaceOnUse"
       id="clipPath11"><path
         style="font-size:224.608px;line-height:393.415px;font-family:'Cherry Bomb One';-inkscape-font-specification:'Cherry Bomb One';letter-spacing:0px;fill:#bf4040;fill-opacity:1;stroke:none;stroke-width:2.11667;stroke-linecap:square;paint-order:stroke fill markers"
         d="m 452.78682,224.36663 q -8.98432,0 -12.80266,-4.94138 -3.59373,-5.16598 -4.26757,-12.80265 -0.67381,-7.86128 -0.67381,-15.72256 0,-11.90423 -3.36913,-19.09168 -3.36912,-7.41207 -11.90421,-7.41207 -7.63667,0 -11.2304,7.41207 -3.59373,7.18745 -3.59373,19.09168 0,7.86128 -0.67384,15.49795 -0.44921,7.63667 -4.04294,12.80266 -3.59373,4.94137 -13.02726,4.94137 -6.96286,0 -11.67961,-5.16598 -4.49217,-5.16599 -6.96285,-13.47648 -2.47068,-8.3105 -3.59373,-17.96864 -0.89842,-9.65815 -0.89842,-18.64247 0,-8.98432 0.89842,-18.41785 0.89844,-9.43354 3.14452,-17.51943 2.47068,-8.08588 6.96285,-13.02726 4.49215,-4.94138 11.67961,-4.94138 12.80266,0 15.94715,11.67962 2.69531,-2.9199 8.53512,-5.39059 6.0644,-2.6953 13.70107,-2.6953 17.29484,0 28.30063,8.75971 11.00577,8.75972 15.94715,24.25767 5.16599,15.27334 4.94139,35.48806 0,10.33197 -2.02147,18.86707 -1.79687,8.3105 -6.51365,13.47648 -4.49215,4.94138 -12.80263,4.94138 z"
         id="path12-9" /></clipPath><clipPath
       clipPathUnits="userSpaceOnUse"
       id="clipPath12"><path
         style="font-size:224.608px;line-height:393.415px;font-family:'Cherry Bomb One';-inkscape-font-specification:'Cherry Bomb One';letter-spacing:0px;fill:#bf4040;fill-opacity:1;stroke:none;stroke-width:2.11667;stroke-linecap:square;paint-order:stroke fill markers"
         d="m 452.78682,224.36663 q -8.98432,0 -12.80266,-4.94138 -3.59373,-5.16598 -4.26757,-12.80265 -0.67381,-7.86128 -0.67381,-15.72256 0,-11.90423 -3.36913,-19.09168 -3.36912,-7.41207 -11.90421,-7.41207 -7.63667,0 -11.2304,7.41207 -3.59373,7.18745 -3.59373,19.09168 0,7.86128 -0.67384,15.49795 -0.44921,7.63667 -4.04294,12.80266 -3.59373,4.94137 -13.02726,4.94137 -6.96286,0 -11.67961,-5.16598 -4.49217,-5.16599 -6.96285,-13.47648 -2.47068,-8.3105 -3.59373,-17.96864 -0.89842,-9.65815 -0.89842,-18.64247 0,-8.98432 0.89842,-18.41785 0.89844,-9.43354 3.14452,-17.51943 2.47068,-8.08588 6.96285,-13.02726 4.49215,-4.94138 11.67961,-4.94138 12.80266,0 15.94715,11.67962 2.69531,-2.9199 8.53512,-5.39059 6.0644,-2.6953 13.70107,-2.6953 17.29484,0 28.30063,8.75971 11.00577,8.75972 15.94715,24.25767 5.16599,15.27334 4.94139,35.48806 0,10.33197 -2.02147,18.86707 -1.79687,8.3105 -6.51365,13.47648 -4.49215,4.94138 -12.80263,4.94138 z"
         id="path14" /></clipPath><clipPath
       clipPathUnits="userSpaceOnUse"
       id="clipPath15"><path
         style="font-size:224.608px;line-height:393.415px;font-family:'Cherry Bomb One';-inkscape-font-specification:'Cherry Bomb One';letter-spacing:0px;fill:#bf4040;fill-opacity:1;stroke:none;stroke-width:2.11667;stroke-linecap:square;paint-order:stroke fill markers"
         d="m 511.63431,224.36663 q -8.98433,0 -13.47647,-5.16598 -4.26755,-5.16599 -5.83981,-15.72256 -1.34765,-10.78119 -1.57226,-27.62679 0,-16.8456 1.34763,-27.62678 1.57226,-10.78119 6.06444,-15.72256 4.49214,-5.16599 13.47647,-5.16599 8.98432,0 13.25187,5.16599 4.49217,4.94137 6.06443,15.72256 1.57223,10.78118 1.57223,27.62678 0.22461,16.8456 -1.34762,27.62679 -1.57226,10.55657 -6.06444,15.72256 -4.49215,5.16598 -13.47647,5.16598 z"
         id="path16" /></clipPath><clipPath
       clipPathUnits="userSpaceOnUse"
       id="clipPath17"><path
         style="font-size:224.608px;line-height:393.415px;font-family:'Cherry Bomb One';-inkscape-font-specification:'Cherry Bomb One';letter-spacing:0px;fill:#bf4040;fill-opacity:1;stroke:none;stroke-width:2.11667;stroke-linecap:square;paint-order:stroke fill markers"
         d="m 681.32926,224.3022 q -8.98433,0 -13.47647,-5.16597 -4.26755,-5.16599 -5.83981,-15.72257 -1.34765,-10.78118 -1.57226,-27.62678 0,-16.8456 1.34763,-27.62678 1.57226,-10.78119 6.06444,-15.72257 4.49214,-5.16598 13.47647,-5.16598 8.98432,0 13.25187,5.16598 4.49217,4.94138 6.06443,15.72257 1.57223,10.78118 1.57223,27.62678 0.22461,16.8456 -1.34762,27.62678 -1.57226,10.55658 -6.06444,15.72257 -4.49215,5.16597 -13.47647,5.16597 z"
         id="path17" /></clipPath><clipPath
       clipPathUnits="userSpaceOnUse"
       id="clipPath18"><path
         style="font-size:224.608px;line-height:393.415px;font-family:'Cherry Bomb One';-inkscape-font-specification:'Cherry Bomb One';letter-spacing:0px;fill:#bf4040;fill-opacity:1;stroke:none;stroke-width:2.11667;stroke-linecap:square;paint-order:stroke fill markers"
         d="m 573.177,224.36663 q -7.63667,0 -12.57805,-4.94138 -4.71678,-5.16598 -7.18746,-13.70108 -2.47068,-8.53511 -3.36913,-19.5409 -0.89842,-11.00579 -0.89842,-22.68541 0,-7.86128 0.22461,-15.94717 0.44921,-8.31049 2.24607,-15.27334 2.02147,-6.96285 6.51362,-11.2304 4.71678,-4.49216 13.25187,-4.49216 6.06443,0 11.00582,2.9199 4.94136,2.6953 6.28901,8.3105 5.16599,-4.71677 13.02727,-6.73824 8.08587,-2.24608 16.62099,-2.24608 7.18746,0 14.59952,3.59373 7.41207,3.36912 12.57803,9.43353 5.16599,6.06442 5.16599,13.70109 0,6.51363 -4.94136,12.35344 -4.71678,5.83981 -13.4765,5.83981 -3.81831,0 -6.28901,-0.89843 -2.47068,-1.12304 -4.71676,-2.02147 -2.2461,-0.89844 -5.39059,-0.89844 -8.31051,0 -15.27337,6.73824 -6.73822,6.51364 -6.73822,17.74404 0,5.8398 -0.44921,12.80265 -0.22463,6.73824 -2.02147,13.02727 -1.57226,6.28902 -5.83983,10.33196 -4.26754,3.81834 -12.35342,3.81834 z"
         id="path19" /></clipPath><clipPath
       clipPathUnits="userSpaceOnUse"
       id="clipPath19"><path
         style="font-size:224.608px;line-height:393.415px;font-family:'Cherry Bomb One';-inkscape-font-specification:'Cherry Bomb One';letter-spacing:0px;fill:#bf4040;fill-opacity:1;stroke:none;stroke-width:2.11667;stroke-linecap:square;paint-order:stroke fill markers"
         d="m 573.177,224.36663 q -7.63667,0 -12.57805,-4.94138 -4.71678,-5.16598 -7.18746,-13.70108 -2.47068,-8.53511 -3.36913,-19.5409 -0.89842,-11.00579 -0.89842,-22.68541 0,-7.86128 0.22461,-15.94717 0.44921,-8.31049 2.24607,-15.27334 2.02147,-6.96285 6.51362,-11.2304 4.71678,-4.49216 13.25187,-4.49216 6.06443,0 11.00582,2.9199 4.94136,2.6953 6.28901,8.3105 5.16599,-4.71677 13.02727,-6.73824 8.08587,-2.24608 16.62099,-2.24608 7.18746,0 14.59952,3.59373 7.41207,3.36912 12.57803,9.43353 5.16599,6.06442 5.16599,13.70109 0,6.51363 -4.94136,12.35344 -4.71678,5.83981 -13.4765,5.83981 -3.81831,0 -6.28901,-0.89843 -2.47068,-1.12304 -4.71676,-2.02147 -2.2461,-0.89844 -5.39059,-0.89844 -8.31051,0 -15.27337,6.73824 -6.73822,6.51364 -6.73822,17.74404 0,5.8398 -0.44921,12.80265 -0.22463,6.73824 -2.02147,13.02727 -1.57226,6.28902 -5.83983,10.33196 -4.26754,3.81834 -12.35342,3.81834 z"
         id="path20" /></clipPath><clipPath
       clipPathUnits="userSpaceOnUse"
       id="clipPath20"><path
         style="font-size:224.608px;line-height:393.415px;font-family:'Cherry Bomb One';-inkscape-font-specification:'Cherry Bomb One';letter-spacing:0px;fill:#bf4040;fill-opacity:1;stroke:none;stroke-width:2.11667;stroke-linecap:square;paint-order:stroke fill markers"
         d="m 573.177,224.36663 q -7.63667,0 -12.57805,-4.94138 -4.71678,-5.16598 -7.18746,-13.70108 -2.47068,-8.53511 -3.36913,-19.5409 -0.89842,-11.00579 -0.89842,-22.68541 0,-7.86128 0.22461,-15.94717 0.44921,-8.31049 2.24607,-15.27334 2.02147,-6.96285 6.51362,-11.2304 4.71678,-4.49216 13.25187,-4.49216 6.06443,0 11.00582,2.9199 4.94136,2.6953 6.28901,8.3105 5.16599,-4.71677 13.02727,-6.73824 8.08587,-2.24608 16.62099,-2.24608 7.18746,0 14.59952,3.59373 7.41207,3.36912 12.57803,9.43353 5.16599,6.06442 5.16599,13.70109 0,6.51363 -4.94136,12.35344 -4.71678,5.83981 -13.4765,5.83981 -3.81831,0 -6.28901,-0.89843 -2.47068,-1.12304 -4.71676,-2.02147 -2.2461,-0.89844 -5.39059,-0.89844 -8.31051,0 -15.27337,6.73824 -6.73822,6.51364 -6.73822,17.74404 0,5.8398 -0.44921,12.80265 -0.22463,6.73824 -2.02147,13.02727 -1.57226,6.28902 -5.83983,10.33196 -4.26754,3.81834 -12.35342,3.81834 z"
         id="path21" /></clipPath><clipPath
       clipPathUnits="userSpaceOnUse"
       id="clipPath21"><path
         style="font-size:224.608px;line-height:393.415px;font-family:'Cherry Bomb One';-inkscape-font-specification:'Cherry Bomb One';letter-spacing:0px;fill:#bf4040;fill-opacity:1;stroke:none;stroke-width:2.11667;stroke-linecap:square;paint-order:stroke fill markers"
         d="m 573.177,224.36663 q -7.63667,0 -12.57805,-4.94138 -4.71678,-5.16598 -7.18746,-13.70108 -2.47068,-8.53511 -3.36913,-19.5409 -0.89842,-11.00579 -0.89842,-22.68541 0,-7.86128 0.22461,-15.94717 0.44921,-8.31049 2.24607,-15.27334 2.02147,-6.96285 6.51362,-11.2304 4.71678,-4.49216 13.25187,-4.49216 6.06443,0 11.00582,2.9199 4.94136,2.6953 6.28901,8.3105 5.16599,-4.71677 13.02727,-6.73824 8.08587,-2.24608 16.62099,-2.24608 7.18746,0 14.59952,3.59373 7.41207,3.36912 12.57803,9.43353 5.16599,6.06442 5.16599,13.70109 0,6.51363 -4.94136,12.35344 -4.71678,5.83981 -13.4765,5.83981 -3.81831,0 -6.28901,-0.89843 -2.47068,-1.12304 -4.71676,-2.02147 -2.2461,-0.89844 -5.39059,-0.89844 -8.31051,0 -15.27337,6.73824 -6.73822,6.51364 -6.73822,17.74404 0,5.8398 -0.44921,12.80265 -0.22463,6.73824 -2.02147,13.02727 -1.57226,6.28902 -5.83983,10.33196 -4.26754,3.81834 -12.35342,3.81834 z"
         id="path22" /></clipPath><clipPath
       clipPathUnits="userSpaceOnUse"
       id="clipPath23"><path
         style="font-size:224.608px;line-height:393.415px;font-family:'Cherry Bomb One';-inkscape-font-specification:'Cherry Bomb One';letter-spacing:0px;fill:#bf4040;fill-opacity:1;stroke:none;stroke-width:2.11667;stroke-linecap:square;paint-order:stroke fill markers"
         d="m 681.43807,224.36663 q -8.98432,0 -13.47647,-5.16598 -4.26757,-5.16599 -5.83983,-15.72256 -1.34763,-10.78119 -1.57226,-27.62679 0,-16.8456 1.34765,-27.62678 1.57226,-10.78119 6.06444,-15.72256 4.49215,-5.16599 13.47647,-5.16599 8.98432,0 13.25187,5.16599 4.49215,4.94137 6.06441,15.72256 1.57226,10.78118 1.57226,27.62678 0.2246,16.8456 -1.34766,27.62679 -1.57223,10.55657 -6.06441,15.72256 -4.49215,5.16598 -13.47647,5.16598 z"
         id="path25-2" /></clipPath><clipPath
       clipPathUnits="userSpaceOnUse"
       id="clipPath25"><path
         style="font-size:224.608px;line-height:393.415px;font-family:'Cherry Bomb One';-inkscape-font-specification:'Cherry Bomb One';letter-spacing:0px;fill:#bf4040;fill-opacity:1;stroke:none;stroke-width:2.11667;stroke-linecap:square;paint-order:stroke fill markers"
         d="m 681.43807,224.36663 q -8.98432,0 -13.47647,-5.16598 -4.26757,-5.16599 -5.83983,-15.72256 -1.34763,-10.78119 -1.57226,-27.62679 0,-16.8456 1.34765,-27.62678 1.57226,-10.78119 6.06444,-15.72256 4.49215,-5.16599 13.47647,-5.16599 8.98432,0 13.25187,5.16599 4.49215,4.94137 6.06441,15.72256 1.57226,10.78118 1.57226,27.62678 0.2246,16.8456 -1.34766,27.62679 -1.57223,10.55657 -6.06441,15.72256 -4.49215,5.16598 -13.47647,5.16598 z"
         id="path26-2" /></clipPath><clipPath
       clipPathUnits="userSpaceOnUse"
       id="clipPath34"><path
         id="path35"
         style="fill:#bf4040;fill-opacity:1;stroke-width:2.11667;stroke-linecap:square;paint-order:stroke fill markers"
         d="m 169.33334,220.13334 c 0,8.46667 -4.23334,16.93333 -33.86667,16.93333 -29.63333,0 -33.86667,-8.46666 -33.86667,-16.93333 0,-12.7 8.46667,-21.16667 33.86667,-21.16667 25.4,0 33.86667,8.46667 33.86667,21.16667 z" /></clipPath><clipPath
       clipPathUnits="userSpaceOnUse"
       id="clipPath35"><path
         id="path36-8"
         style="fill:#bf4040;fill-opacity:1;stroke-width:2.11667;stroke-linecap:square;paint-order:stroke fill markers"
         d="m 715.91343,141.3418 c 0,8.46667 -4.23334,16.93332 -33.86667,16.93332 -29.63333,0 -33.86667,-8.46665 -33.86667,-16.93332 0,-12.7 8.46667,-21.16668 33.86667,-21.16668 25.4,0 33.86667,8.46668 33.86667,21.16668 z" /></clipPath><filter
       style="color-interpolation-filters:sRGB"
       id="filter61"
       x="-0.43233621"
       y="-0.31282973"
       width="1.8646724"
       height="1.6256595"><feGaussianBlur
         stdDeviation="18.492881"
         id="feGaussianBlur61" /></filter></defs><path
     style="font-size:224.608px;line-height:393.415px;letter-spacing:0;fill:#2d2d2d;fill-opacity:1;stroke:none;stroke-width:0.59702"
     d="m 103.61688,70.106579 c -3.46928,0.132538 -7.056772,1.370161 -9.405449,4.019138 -2.632858,2.939727 -3.841226,6.849014 -4.400037,10.685464 -0.730753,5.01258 -0.829858,10.089638 -0.90747,15.147592 -0.05015,6.512297 0.197016,13.037727 1.004187,19.502857 0.573139,3.84421 1.720015,7.75708 4.235857,10.80009 2.303303,2.65077 5.841244,3.93436 9.287242,4.07764 3.28719,0.16956 6.76066,-0.38627 9.49202,-2.33136 1.7433,-1.2018 3.07883,-2.91047 4.01317,-4.79706 2.04957,-3.99645 2.54808,-8.54275 2.91226,-12.95533 0.47643,-6.3714 0.35523,-12.76906 0.16239,-19.150013 -0.19701,-4.8884 -0.51343,-9.828143 -1.85195,-14.557735 -0.99882,-3.285999 -2.82391,-6.490205 -5.75528,-8.405445 -2.59226,-1.659716 -5.75646,-2.157033 -8.78694,-2.035838"
     id="path51" /><path
     style="font-size:224.608px;line-height:393.415px;letter-spacing:0;fill:#2d2d2d;fill-opacity:1;stroke:none;stroke-width:0.59702"
     d="m 139.4942,63.66533 c -3.60719,0.08776 -7.33976,1.314638 -9.85083,3.997646 -2.93017,3.003011 -4.45257,7.105732 -5.06093,11.19711 -0.97315,5.566615 -0.79523,11.240693 -0.82509,16.867606 0.0519,7.360058 0.35941,14.766688 1.84181,21.995408 0.91105,4.23526 2.38569,8.4753 5.13616,11.88488 1.83703,2.2233 4.41377,3.84481 7.25499,4.40302 3.22749,0.7021 6.66692,0.39523 9.73441,-0.81911 2.64958,-1.11881 4.73437,-3.31346 6.02155,-5.85677 1.67165,-3.2454 2.2836,-6.90811 2.63942,-10.50576 0.35045,-3.79824 0.28597,-7.61797 0.5003,-11.42338 0.25613,-2.79107 1.61494,-5.501536 3.85854,-7.216774 2.08838,-1.697328 4.90512,-2.763009 7.59768,-2.113451 1.44539,0.411347 2.74331,1.226279 4.19705,1.6227 1.84658,0.489557 3.79108,0.55105 5.68721,0.382093 2.91585,-0.275823 5.78752,-1.449565 7.86992,-3.543314 2.77913,-2.780322 4.66631,-6.604235 4.60004,-10.588149 -0.002,-4.016154 -1.73315,-7.934993 -4.50869,-10.808451 -3.55048,-3.845405 -8.35828,-6.416174 -13.42101,-7.637079 -4.1278,-0.896127 -8.40784,-0.472243 -12.5213,0.285375 -2.95406,0.583886 -5.87886,1.477028 -8.50993,2.966593 -2.16957,-2.819726 -5.62034,-4.382127 -9.07231,-4.91646 a 18.149408,18.149408 0 0 0 -3.16899,-0.173136"
     id="path50" /><path
     style="font-size:224.608px;line-height:393.415px;letter-spacing:0;fill:#2d2d2d;fill-opacity:1;stroke:none;stroke-width:0.59702"
     d="m 205.17178,70.102997 c -3.47705,0.09254 -7.08066,1.289563 -9.47471,3.90451 -2.63286,2.859726 -3.86451,6.697371 -4.46571,10.468149 -0.78926,5.347508 -0.89732,10.765465 -0.95702,16.161334 -0.0209,6.27527 0.22567,12.5619 1.00359,18.7918 0.56836,3.82093 1.69673,7.70693 4.17138,10.75054 2.25434,2.65495 5.74751,3.9666 9.16246,4.14929 2.95585,0.17134 6.04782,-0.20836 8.66276,-1.67763 2.05375,-1.13434 3.71466,-2.90928 4.79527,-4.98512 2.15166,-3.90391 2.7248,-8.4138 3.1045,-12.78757 0.53374,-6.53438 0.40896,-13.10041 0.21851,-19.646732 -0.19702,-4.880638 -0.4997,-9.812023 -1.81494,-14.539228 -0.97135,-3.265699 -2.73435,-6.463338 -5.60244,-8.42037 -2.56599,-1.73494 -5.75766,-2.266885 -8.80365,-2.168973"
     id="path25" /><path
     d="m 93.636501,18.678082 c -2.83883,0.145076 -5.365419,2.232855 -6.300949,4.877653 -1.259712,3.014951 -1.365982,6.333189 -1.531953,9.550529 -0.149255,4.644816 -0.0209,9.309333 -0.311645,13.928477 -0.196419,4.396455 -0.282987,8.935001 1.202399,13.141604 1.271652,3.50809 3.922421,6.493787 7.280658,8.131413 1.401206,0.706871 2.958235,1.323593 4.555263,1.179711 1.940316,-0.232241 3.669286,-1.861508 3.823316,-3.843615 0.26747,-1.922404 -0.76359,-3.6663 -1.40001,-5.404225 -0.71643,-2.091958 -1.045981,-4.358246 -0.87464,-6.60125 0.18508,-2.299124 0.53255,-4.614367 1.32539,-6.789311 0.0699,-0.405974 0.31284,-0.526572 0.66627,-0.310451 2.79525,0.903292 5.14034,2.979727 6.59648,5.505719 1.12001,2.200615 1.26448,4.876459 0.32836,7.167822 -0.18806,0.507467 -0.52657,1.133144 -0.82568,1.657327 -0.92001,1.613148 -1.62748,3.559434 -1.04658,5.412584 0.49135,1.791657 2.3045,3.032861 4.13914,2.980921 1.91584,-0.03045 3.66571,-0.997024 5.22333,-2.029868 3.81138,-2.529574 6.25856,-6.807223 7.00424,-11.274723 0.77314,-3.941526 0.55344,-8.12783 -0.98449,-11.864579 -1.86748,-4.780339 -5.06213,-8.904553 -8.54216,-12.621002 -3.74331,-3.929586 -7.9941,-7.386332 -12.64011,-10.194714 -1.973148,-1.130159 -4.05615,-2.20181 -6.326617,-2.551663 a 7.940366,7.940366 0 0 0 -1.360012,-0.04836 m 101.101759,0 c -2.83943,0.142091 -5.3696,2.228079 -6.30633,4.872877 -1.2621,3.028086 -1.36956,6.35886 -1.53553,9.588738 -0.14627,4.539143 -0.0173,9.0956 -0.29612,13.610265 -0.2018,4.422127 -0.32419,8.982763 1.11941,13.231158 1.20837,3.474656 3.75346,6.469905 7.02931,8.157681 1.43524,0.773141 3.03107,1.428669 4.6884,1.370758 1.97136,-0.158808 3.78988,-1.746284 3.99586,-3.751674 0.2997,-1.822702 -0.59523,-3.524806 -1.25375,-5.160641 -0.62687,-1.719417 -0.99881,-3.509283 -1.04478,-5.31706 -0.007,-2.255541 0.28776,-4.513471 0.8203,-6.704534 0.19762,-0.740305 0.42508,-1.478222 0.75225,-2.173153 2.72719,0.716424 5.03765,2.617335 6.61737,4.91228 1.60956,2.431663 1.83285,5.690198 0.5815,8.323653 -0.67822,1.383295 -1.55763,2.710471 -1.81435,4.259141 -0.32478,1.601804 0.18926,3.39585 1.5021,4.42153 1.16181,0.994635 2.81913,1.124189 4.249,0.739111 1.59822,-0.427467 3.03226,-1.315235 4.37257,-2.260915 3.29734,-2.477633 5.47885,-6.270501 6.26453,-10.294416 0.80658,-3.794062 0.76538,-7.832902 -0.54567,-11.51174 -1.5839,-4.569591 -4.46392,-8.558878 -7.62634,-12.165476 -3.78451,-4.240036 -8.18395,-7.920664 -12.95951,-10.99472 -2.11823,-1.286579 -4.3487,-2.490768 -6.78394,-3.037638 a 8.35828,8.35828 0 0 0 -1.82688,-0.115225"
     style="display:inline;mix-blend-mode:normal;fill:#2d2d2d;fill-opacity:1;stroke:none;stroke-width:0.59702"
     id="path26" /><path
     d="m 284.24439,278.46196 q 0,26.34668 -24.82669,35.97335 -24.82668,9.12001 -67.89337,9.62668 -0.50667,12.66667 -0.50667,41.04002 0,28.88002 4.05334,41.04003 2.53333,8.61334 7.6,11.14667 5.57334,2.53334 16.21334,3.54667 3.54667,0.50667 7.60001,1.52 4.56,0.50667 10.13334,1.52 11.65334,2.53334 18.24001,12.66668 6.58667,9.62667 6.58667,24.82668 0,17.22668 -17.73334,26.85335 -17.73335,9.62667 -48.64003,9.62667 -28.37336,0 -54.21337,-16.21334 -25.84002,-16.72001 -35.46669,-44.58669 -10.133342,-29.89336 -10.133342,-112.98674 -35.46669,-1.01334 -57.25337,-9.12001 -21.280014,-8.61334 -21.280014,-30.40002 0,-27.36002 20.26668,-36.48002 20.266679,-9.62668 58.266704,-10.13334 1.520001,-40.53336 12.666672,-67.38671 11.14668,-27.36002 40.02669,-27.36002 29.38669,0 38.00003,25.33335 9.12001,25.33335 8.10667,69.41338 46.1067,-0.50667 67.89338,7.09334 22.29335,7.6 22.29335,33.44002 z"
     id="text52"
     style="font-size:506.667px;font-family:'Cherry Bomb One';-inkscape-font-specification:'Cherry Bomb One';white-space:pre;fill-opacity:0;stroke:#2d2d2d;stroke-width:21.9"
     transform="matrix(0.26458404,0,0,0.26458404,7.0934227,-0.32892553)"
     aria-label="t" /><path
     d="m 284.24439,278.46196 q 0,26.34668 -24.82669,35.97335 -24.82668,9.12001 -67.89337,9.62668 -0.50667,12.66667 -0.50667,41.04002 0,28.88002 4.05334,41.04003 2.53333,8.61334 7.6,11.14667 5.57334,2.53334 16.21334,3.54667 3.54667,0.50667 7.60001,1.52 4.56,0.50667 10.13334,1.52 11.65334,2.53334 18.24001,12.66668 6.58667,9.62667 6.58667,24.82668 0,17.22668 -17.73334,26.85335 -17.73335,9.62667 -48.64003,9.62667 -28.37336,0 -54.21337,-16.21334 -25.84002,-16.72001 -35.46669,-44.58669 -10.133342,-29.89336 -10.133342,-112.98674 -35.46669,-1.01334 -57.25337,-9.12001 -21.280014,-8.61334 -21.280014,-30.40002 0,-27.36002 20.26668,-36.48002 20.266679,-9.62668 58.266704,-10.13334 1.520001,-40.53336 12.666672,-67.38671 11.14668,-27.36002 40.02669,-27.36002 29.38669,0 38.00003,25.33335 9.12001,25.33335 8.10667,69.41338 46.1067,-0.50667 67.89338,7.09334 22.29335,7.6 22.29335,33.44002 z"
     id="text50"
     style="font-size:506.667px;font-family:'Cherry Bomb One';-inkscape-font-specification:'Cherry Bomb One';white-space:pre;fill:#2586b4"
     transform="matrix(0.26458404,0,0,0.26458404,7.6225907,-1.9164298)"
     aria-label="t" /><g
     data-name="body"
     fill="#2586b4"
     id="g32"><path
       d="M681.438 224.367q-8.984 0-13.476-5.166-4.268-5.166-5.84-15.723-1.348-10.781-1.572-27.627 0-16.845 1.347-27.626 1.572-10.782 6.065-15.723 4.492-5.166 13.476-5.166t13.252 5.166q4.492 4.941 6.064 15.723 1.573 10.78 1.573 27.626.224 16.846-1.348 27.627-1.572 10.557-6.064 15.723-4.493 5.166-13.477 5.166"
       style="font-size:224.608px;line-height:393.415px;letter-spacing:0;fill-opacity:1;stroke:none"
       transform="translate(-200.102 -4.035)scale(.59702)"
       id="path28" /><path
       d="M573.177 224.367q-7.637 0-12.578-4.942-4.717-5.166-7.188-13.7-2.47-8.536-3.369-19.542-.898-11.006-.898-22.685 0-7.861.225-15.947.449-8.31 2.246-15.274 2.021-6.962 6.513-11.23 4.717-4.492 13.252-4.492 6.065 0 11.006 2.92 4.941 2.695 6.289 8.31 5.166-4.717 13.027-6.738 8.086-2.246 16.621-2.246 7.188 0 14.6 3.594 7.412 3.369 12.578 9.433 5.166 6.065 5.166 13.701 0 6.514-4.942 12.354-4.716 5.84-13.476 5.84-3.818 0-6.29-.899-2.47-1.123-4.716-2.021-2.246-.899-5.39-.899-8.311 0-15.274 6.738-6.738 6.514-6.738 17.744 0 5.84-.45 12.803-.224 6.738-2.02 13.027-1.573 6.29-5.84 10.332-4.268 3.819-12.354 3.819"
       style="font-size:224.608px;line-height:393.415px;letter-spacing:0;fill-opacity:1;stroke:none"
       transform="translate(-200.102 -4.035)scale(.59702)"
       id="path29" /><path
       d="M101.6 42.333c16.933 0 84.667 50.8 84.667 93.134 0 28.572-13.392 41.074-25.112 46.544-8.878 4.144-11.337-1.382-6.4-9.889 3.318-5.715 6.112-12.633 6.112-19.722 0-12.7-4.234-21.167-12.7-29.633-8.467-8.467-19.342-12.7-25.4-12.7-8.467 0-12.7 24.885-12.7 38.1 0 10.53 3.143 20.011 6.301 26.882 2.98 6.48.486 10.931-6.196 8.474-7.3-2.685-16.052-7.983-21.272-18.423-8.467-16.933-4.233-41.302-4.233-63.5 0-33.867 0-59.267 16.933-59.267"
       style="display:inline;mix-blend-mode:normal;fill-opacity:1;stroke:none"
       transform="translate(63.168 7.282)scale(.31365)"
       id="path30" /><path
       d="M101.6 42.333c16.933 0 84.667 50.8 84.667 93.134 0 28.572-13.392 41.074-25.112 46.544-8.878 4.144-11.337-1.382-6.4-9.889 3.318-5.715 6.112-12.633 6.112-19.722 0-12.7-4.234-21.167-12.7-29.633-8.467-8.467-19.342-12.7-25.4-12.7-8.467 0-12.7 24.885-12.7 38.1 0 10.53 3.143 20.011 6.301 26.882 2.98 6.48.486 10.931-6.196 8.474-7.3-2.685-16.052-7.983-21.272-18.423-8.467-16.933-4.233-41.302-4.233-63.5 0-33.867 0-59.267 16.933-59.267"
       style="display:inline;mix-blend-mode:normal;fill-opacity:1;stroke:none"
       transform="translate(164.264 7.282)scale(.31365)"
       id="path31" /><path
       d="M511.634 224.367q-8.984 0-13.476-5.166-4.268-5.166-5.84-15.723-1.348-10.781-1.572-27.627 0-16.845 1.347-27.626 1.573-10.782 6.065-15.723 4.492-5.166 13.476-5.166t13.252 5.166q4.492 4.941 6.065 15.723 1.572 10.78 1.572 27.626.224 16.846-1.348 27.627-1.572 10.557-6.064 15.723t-13.477 5.166"
       style="font-size:224.608px;line-height:393.415px;letter-spacing:0;fill-opacity:1;stroke:none"
       transform="translate(-200.102 -4.035)scale(.59702)"
       id="path32" /></g><g
     data-name="highlight"
     fill="#fff"
     id="g38"><path
       d="m 663.746,140.432 c 0.57,-1.238 1.66,-3.067 3.451,-4.817 a 20,20 0 0 1 2.759,-2.233 q 0.7,-0.478 1.466,-0.912 a 19.8,19.8 0 0 1 9.93,-2.566 c 3.448,0.032 6.745,0.984 9.604,2.545 q 0.834,0.456 1.594,0.958 a 22,22 0 0 1 2.657,2.029 c 1.813,1.638 2.939,3.336 3.53,4.496 -0.272,-1.22 -0.782,-3.332 -2.204,-5.594 a 14.4,14.4 0 0 0 -2.41,-2.919 15.4,15.4 0 0 0 -1.688,-1.348 c -3.146,-2.176 -7.08,-3.267 -11.06,-3.292 h -0.199 c -4.043,0.012 -8.038,1.143 -11.213,3.437 q -0.832,0.602 -1.545,1.275 a 14.7,14.7 0 0 0 -2.5,3.126 c -1.401,2.33 -1.906,4.529 -2.172,5.815"
       clip-path="url(#a)"
       style="display:inline;mix-blend-mode:lighten;fill-opacity:0.745098;fill-rule:nonzero;stroke:none;stroke-width:1.292;stroke-linecap:round;stroke-linejoin:round;stroke-opacity:1;filter:url(#b)"
       transform="matrix(0.59702,0,0,0.59702,-200.102,-4.035)"
       id="path33" /><path
       d="M663.746 140.432c.632-1.249 1.805-3.103 3.668-4.862.9-.85 1.813-1.544 2.72-2.15a20 20 0 0 1 1.636-.982 19.75 19.75 0 0 1 9.979-2.325 20.7 20.7 0 0 1 11.054 3.628c.822.566 1.64 1.196 2.434 1.945 1.684 1.586 2.688 3.181 3.21 4.246-.262-1.115-.77-3.044-2.134-5.137a14.3 14.3 0 0 0-2.218-2.649 16 16 0 0 0-1.673-1.356c-2.966-2.09-6.71-3.283-10.584-3.413l-.192-.006c-3.934-.097-7.865.904-11.089 3.067a16 16 0 0 0-1.714 1.324 15.4 15.4 0 0 0-2.516 2.892c-1.537 2.272-2.213 4.473-2.581 5.778"
       clip-path="url(#n)"
       style="mix-blend-mode:lighten;fill-opacity:.745098;fill-rule:nonzero;stroke:none;stroke-width:1.292;stroke-linecap:round;stroke-linejoin:round;stroke-opacity:1;filter:url(#o)"
       transform="translate(-301.414 -3.996)scale(.59702)"
       id="path36" /><path
       d="M550.175 140.769c.4-1.325 1.399-4.411 2.53-7.157q.074-.18.153-.363c.784-1.84 1.844-3.878 3.3-5.725a17 17 0 0 1 4.138-3.75c1.53-.989 3.081-1.671 4.517-2.206l.194-.072a31.6 31.6 0 0 1 5.215-1.39c2.112-.376 4.258-.543 6.236-.438 2.169.113 3.956.592 5.373 1.19q.146.06.29.125a19.4 19.4 0 0 1 4.931 3.155c-.648-.904-2.026-2.768-4.257-4.337q-.14-.099-.283-.194a17.7 17.7 0 0 0-5.653-2.517c-2.175-.54-4.605-.763-7.033-.65-2.301.108-4.467.512-6.232 1.147l-.246.091a17.6 17.6 0 0 0-5.28 3.182 18.3 18.3 0 0 0-4.135 5.234c-1.232 2.326-1.938 4.747-2.42 6.709l-.095.395c-.688 2.893-1.07 6.249-1.244 7.57"
       clip-path="url(#f)"
       style="mix-blend-mode:lighten;fill-opacity:.745098;fill-rule:nonzero;stroke:none;stroke-width:1.292;stroke-linecap:round;stroke-linejoin:round;stroke-opacity:1;filter:url(#g)"
       transform="translate(-200.102 -4.035)scale(.59702)"
       id="path37" /><path
       d="M605.089 120.336c.007.071.235.148 1.308.2 1.043.05 2.884.067 5.087.13 1.86.052 3.75.134 5.552.288q.639.055 1.227.119.736.08 1.425.183c.836.126 1.601.279 2.265.46 2.67.72 5.51 1.863 8.214 3.208a56 56 0 0 1 3.678 2.003 36 36 0 0 1 3.03 2.005c1.857 1.384 3.471 2.556 4.924 3.827 1.49 1.304 2.714 2.632 3.854 4.288q.285.417.537.8c.38.576.743 1.14 1.084 1.707.48.798.898 1.574 1.273 2.402.407.898.732 1.796 1.008 2.724.38 1.279.64 2.537.777 3.357.043-.736.155-2.203.183-3.484a23 23 0 0 0-.12-3.091 16.5 16.5 0 0 0-.62-2.999 18 18 0 0 0-.81-2.132q-.21-.464-.46-.959c-1.06-2.092-2.365-3.847-4.005-5.487-1.55-1.55-3.323-2.918-5.148-4.277a31 31 0 0 0-3.887-2.445 38 38 0 0 0-3.725-1.745c-3.045-1.234-6.237-2.093-9.245-2.48a27 27 0 0 0-2.582-.198 45 45 0 0 0-2.815-.005c-1.85.05-3.826.2-5.677.403-2.265.248-4.044.54-5.077.766-1.055.23-1.262.366-1.255.432"
       clip-path="url(#h)"
       style="mix-blend-mode:lighten;fill-opacity:.745098;fill-rule:nonzero;stroke:none;stroke-width:1.292;stroke-linecap:round;stroke-linejoin:round;stroke-opacity:1;filter:url(#i)"
       transform="translate(-200.102 -4.035)scale(.59702)"
       id="path38" /></g><g
     data-name="shadow"
     fill="#000"
     id="g45"><path
       d="M665.745 215.427c.25.713.743 1.992 1.957 3.427a12 12 0 0 0 1.762 1.694c.482.376 1.017.744 1.605 1.095 2.557 1.527 5.788 2.532 9.182 2.74l.024.002c3.419.206 6.9-.392 9.908-1.817q.975-.462 1.823-1.004c2.96-1.884 4.526-4.387 5.403-6.024-1.33 1.523-3.325 3.082-6.291 4.367q-.83.36-1.743.664c-2.829.936-5.87 1.279-8.94 1.104l-.022-.001c-3.055-.176-5.922-.842-8.398-1.883a21 21 0 0 1-1.576-.74 21 21 0 0 1-1.908-1.116c-1.436-.955-2.314-1.88-2.786-2.508"
       clip-path="url(#d)"
       style="mix-blend-mode:darken;fill-opacity:.74902;fill-rule:nonzero;stroke:none;stroke-width:1.292;stroke-linecap:round;stroke-linejoin:round;filter:url(#e)"
       transform="translate(-200.102 -4.035)scale(.59702)"
       id="path39" /><path
       d="M556.412 213.306c.617 1.63 1.89 4.379 4.778 6.807a18 18 0 0 0 1.194.92c2.748 1.943 6.209 3.277 9.877 3.62q.58.053 1.15.074c3.293.118 6.598-.55 9.524-2.23a15.4 15.4 0 0 0 2.655-1.919 15.3 15.3 0 0 0 1.83-1.982c1.713-2.202 2.634-4.474 3.17-5.82-.82 1.262-2.261 3.08-4.28 4.753a25 25 0 0 1-1.968 1.465 21 21 0 0 1-2.5 1.453 17.7 17.7 0 0 1-9.366 1.767c-3.264-.27-6.35-1.347-9.03-2.852q-.617-.347-1.182-.706c-2.973-1.886-4.8-3.78-5.852-5.35"
       clip-path="url(#j)"
       style="mix-blend-mode:darken;fill-opacity:.74902;fill-rule:nonzero;stroke:none;stroke-width:1.292;stroke-linecap:round;stroke-linejoin:round;filter:url(#k)"
       transform="translate(-200.102 -4.035)scale(.59702)"
       id="path40" /><path
       d="M620.599 160.628c-.66-.367-2.045-1.25-3.756-1.794-.45-.142-.96-.28-1.517-.397a15.2 15.2 0 0 0-4.62-.25c-1.37.131-2.593.374-3.884.822-1.228.426-2.453 1.015-3.876 1.772-1.56.833-2.696 1.703-3.613 2.61l-.13.13c-.967.983-1.744 2.066-2.56 3.324a54 54 0 0 0-1.016 1.616 17 17 0 0 0-1.56 3.308c-.233.67-.45 1.401-.664 2.215a11 11 0 0 0-.286 1.523 20 20 0 0 0-.129 1.665 33 33 0 0 0 .057 3.382v.008c.216 3.214.71 3.828.79 3.822.191-.014.312-.672.552-3.817l.001-.008c.066-.867.17-2.076.348-3.221a18 18 0 0 1 .29-1.488 8 8 0 0 1 .38-1.2c.303-.744.593-1.371.886-1.924.274-.52.546-.963.835-1.386.28-.41.577-.804.915-1.24.331-.429.717-.918 1.14-1.477.88-1.162 1.569-2.01 2.352-2.796q.051-.053.104-.103a14.8 14.8 0 0 1 2.857-2.198c1.363-.816 2.395-1.425 3.392-1.909a15.5 15.5 0 0 1 3.197-1.146 15.4 15.4 0 0 1 4.056-.45c.52.01 1.004.041 1.446.08 1.7.147 3.235.348 4.013.526z"
       clip-path="url(#l)"
       style="mix-blend-mode:darken;fill-opacity:.74902;fill-rule:nonzero;stroke:none;stroke-width:1.292;stroke-linecap:round;stroke-linejoin:round;filter:url(#m)"
       transform="translate(-200.102 -4.035)scale(.59702)"
       id="path41" /><path
       d="M495.595 214.838a11.4 11.4 0 0 0 2.108 3.993 13 13 0 0 0 3.737 3.145c2.871 1.63 6.461 2.44 10.1 2.489h.025c3.568.045 7.126-.723 10.024-2.34q.764-.427 1.427-.905a12.5 12.5 0 0 0 2.358-2.21 12.1 12.1 0 0 0 2.247-4.263c-.486.919-1.393 2.273-2.965 3.546a15 15 0 0 1-2.465 1.604q-.65.343-1.375.643c-2.754 1.142-5.943 1.626-9.188 1.495h-.023c-3.314-.137-6.462-.986-9.124-2.134a28 28 0 0 1-.635-.283c-1.084-.5-2.163-1.056-3.208-1.78-1.588-1.1-2.54-2.224-3.043-3"
       clip-path="url(#p)"
       style="mix-blend-mode:darken;fill-opacity:.74902;fill-rule:nonzero;stroke:none;stroke-width:1.292;stroke-linecap:round;stroke-linejoin:round;filter:url(#q)"
       transform="translate(-200.102 -4.035)scale(.59702)"
       id="path42" /></g><text
     xml:space="preserve"
     style="font-size:3.17501px;text-align:start;writing-mode:lr-tb;direction:ltr;text-anchor:start;fill:#000000;stroke-width:0.264584"
     x="16.303648"
     y="114.12645"
     id="text45"><tspan
       sodipodi:role="line"
       id="tspan45"
       style="stroke-width:0.264584"></tspan></text><text
     xml:space="preserve"
     transform="matrix(0.26458404,0,0,0.26458404,-1.304299e-4,0)"
     id="text46"
     style="font-size:400px;text-align:start;writing-mode:lr-tb;direction:ltr;white-space:pre;shape-inside:url(#rect46);display:inline;fill:#000000"><tspan
       x="32.431641"
       y="873.12976"
       id="tspan2"><tspan
         style="font-size:192px;font-family:'Cherry Bomb One';-inkscape-font-specification:'Cherry Bomb One'"
         id="tspan1">n</tspan></tspan></text><text
     xml:space="preserve"
     transform="matrix(0.26458404,0,0,0.26458404,-1.304299e-4,0)"
     id="text47"
     style="text-align:start;writing-mode:lr-tb;direction:ltr;white-space:pre;shape-inside:url(#rect47);display:inline;fill:#000000" /><text
     xml:space="preserve"
     style="font-style:normal;font-variant:normal;font-weight:normal;font-stretch:normal;font-size:50.8001px;font-family:'Cherry Bomb One';-inkscape-font-specification:'Cherry Bomb One';text-align:start;writing-mode:lr-tb;direction:ltr;text-anchor:start;fill:#000000;stroke-width:0.264584"
     x="29.175053"
     y="25.742809"
     id="text49"><tspan
       sodipodi:role="line"
       id="tspan49"
       style="stroke-width:0.264584"
       x="29.175053"
       y="25.742809" /></text><path
     d="m 402.72,214.213 c -0.415,0.902 -1.212,2.224 -2.632,3.476 a 13.6,13.6 0 0 1 -2.103,1.508 q -0.642,0.381 -1.376,0.712 c -2.503,1.127 -5.44,1.621 -8.514,1.587 l -0.14,-0.002 c -3.054,-0.05 -6.06,-0.619 -8.71,-1.745 q -0.73,-0.31 -1.394,-0.661 a 18,18 0 0 1 -2.471,-1.553 c -1.613,-1.219 -2.598,-2.474 -3.133,-3.323 0.315,0.92 0.92,2.493 2.297,4.182 0.693,0.849 1.48,1.602 2.313,2.235 q 0.668,0.508 1.428,0.972 c 2.75,1.672 6.152,2.675 9.625,2.728 l 0.16,0.002 c 3.496,0.022 6.884,-0.924 9.524,-2.639 a 14,14 0 0 0 1.427,-1.063 c 0.726,-0.62 1.389,-1.35 1.95,-2.17 1.168,-1.707 1.56,-3.312 1.749,-4.246"
     clip-path="url(#z)"
     style="mix-blend-mode:darken;fill-opacity:0.74902;fill-rule:nonzero;stroke:none;stroke-width:1.292;stroke-linecap:round;stroke-linejoin:round;filter:url(#A)"
     transform="matrix(1.4917048,0,0,1.8799404,-520.67865,-287.16049)"
     id="path45" /><path
     d="m 663.746,140.432 c 0.57,-1.238 1.66,-3.067 3.451,-4.817 a 20,20 0 0 1 2.759,-2.233 q 0.7,-0.478 1.466,-0.912 a 19.8,19.8 0 0 1 9.93,-2.566 c 3.448,0.032 6.745,0.984 9.604,2.545 q 0.834,0.456 1.594,0.958 a 22,22 0 0 1 2.657,2.029 c 1.813,1.638 2.939,3.336 3.53,4.496 -0.272,-1.22 -0.782,-3.332 -2.204,-5.594 a 14.4,14.4 0 0 0 -2.41,-2.919 15.4,15.4 0 0 0 -1.688,-1.348 c -3.146,-2.176 -7.08,-3.267 -11.06,-3.292 h -0.199 c -4.043,0.012 -8.038,1.143 -11.213,3.437 q -0.832,0.602 -1.545,1.275 a 14.7,14.7 0 0 0 -2.5,3.126 c -1.401,2.33 -1.906,4.529 -2.172,5.815"
     clip-path="url(#a)"
     style="display:inline;mix-blend-mode:lighten;fill-opacity:0.745098;fill-rule:nonzero;stroke:none;stroke-width:1.292;stroke-linecap:round;stroke-linejoin:round;stroke-opacity:1;filter:url(#b)"
     transform="matrix(0.59701999,0,0,0.59701999,-200.102,-4.035)"
     id="path110"
     sodipodi:insensitive="true" /></svg>
